<?xml version="1.0" standalone="no"?>
<!DOCTYPE svg PUBLIC "-//W3C//DTD SVG 20010904//EN"
 "http://www.w3.org/TR/2001/REC-SVG-20010904/DTD/svg10.dtd">
<svg version="1.0" xmlns="http://www.w3.org/2000/svg"
 width="130.000000pt" height="130.000000pt" viewBox="0 0 130.000000 130.000000"
 preserveAspectRatio="xMidYMid meet">

<g transform="translate(0.000000,130.000000) scale(0.100000,-0.100000)"
fill="#000000" stroke="none">
<path d="M453 1083 c9 -2 23 -2 30 0 6 3 -1 5 -18 5 -16 0 -22 -2 -12 -5z"/>
<path d="M853 1083 c9 -2 23 -2 30 0 6 3 -1 5 -18 5 -16 0 -22 -2 -12 -5z"/>
<path d="M779 1053 c-13 -16 -12 -17 4 -4 9 7 17 15 17 17 0 8 -8 3 -21 -13z"/>
<path d="M352 975 c0 -16 2 -22 5 -12 2 9 2 23 0 30 -3 6 -5 -1 -5 -18z"/>
<path d="M971 974 c0 -11 3 -14 6 -6 3 7 2 16 -1 19 -3 4 -6 -2 -5 -13z"/>
<path d="M624 793 c-73 -36 -110 -158 -62 -203 48 -44 136 -46 196 -5 12 9 22
13 22 10 0 -3 -25 -50 -56 -103 l-56 -97 27 -52 c15 -29 38 -64 52 -77 71 -71
193 -22 193 77 0 31 -13 63 -50 129 -27 48 -50 92 -50 98 0 6 45 10 116 10
l116 0 34 34 c39 39 45 86 19 136 -23 44 -63 60 -148 60 l-73 0 -47 -82 c-70
-126 -72 -127 -72 -69 0 56 -21 92 -75 129 -38 26 -44 26 -86 5z"/>
</g>
</svg>
